<svg width="18" height="16" viewBox="0 0 18 16" fill="none" xmlns="http://www.w3.org/2000/svg">
<g style="mix-blend-mode:overlay">
<mask id="mask0_321_1622" style="mask-type:alpha" maskUnits="userSpaceOnUse" x="0" y="1" width="18" height="15">
<path d="M6.0144 2C6.90627 2.00008 7.69165 2.3514 8.33472 2.92188C8.46725 3.03946 8.53404 3.09835 8.59058 3.11523C8.64743 3.1322 8.68611 3.13217 8.74292 3.11523C8.79945 3.09834 8.86625 3.0395 8.99878 2.92188C9.64184 2.35113 10.4282 2 11.3201 2H15.6003C15.9737 2 16.1609 1.9996 16.3035 2.07227C16.4288 2.13619 16.5306 2.23888 16.5945 2.36426C16.667 2.50681 16.6667 2.69341 16.6667 3.06641V12.4844C16.6667 12.8577 16.6671 13.0449 16.5945 13.1875C16.5306 13.3128 16.4287 13.4146 16.3035 13.4785C16.1609 13.5512 15.9737 13.5518 15.6003 13.5518H11.3201C10.4283 13.5518 9.64178 13.9021 8.99878 14.4727C8.86624 14.5903 8.79945 14.6491 8.74292 14.666C8.68597 14.683 8.64756 14.683 8.59058 14.666C8.53406 14.6491 8.46815 14.5902 8.33569 14.4727C7.69259 13.9021 6.90635 13.5518 6.0144 13.5518H1.73315C1.36002 13.5518 1.17357 13.5511 1.03101 13.4785C0.905564 13.4146 0.802929 13.3129 0.739014 13.1875C0.666431 13.0449 0.666748 12.8576 0.666748 12.4844V3.06641C0.666748 2.69352 0.666537 2.50679 0.739014 2.36426C0.802929 2.23882 0.905564 2.13618 1.03101 2.07227C1.17353 1.99981 1.36029 2 1.73315 2H6.0144Z" fill="#D9D9D9"/>
<path d="M6.0144 2L6.01446 1.33333H6.0144V2ZM8.33472 2.92188L8.77716 2.42319L8.77713 2.42316L8.33472 2.92188ZM8.59058 3.11523L8.39979 3.75402L8.39997 3.75407L8.59058 3.11523ZM8.74292 3.11523L8.93334 3.75413L8.93382 3.75398L8.74292 3.11523ZM8.99878 2.92188L9.44131 3.42048L9.44131 3.42048L8.99878 2.92188ZM16.3035 2.07227L16.6063 1.47835L16.6061 1.47826L16.3035 2.07227ZM16.5945 2.36426L17.1887 2.06201L17.1885 2.0616L16.5945 2.36426ZM16.6667 3.06641H17.3334H16.6667ZM16.5945 13.1875L17.1885 13.4902L17.1885 13.4902L16.5945 13.1875ZM16.3035 13.4785L16.6061 14.0725L16.6065 14.0723L16.3035 13.4785ZM8.99878 14.4727L8.5563 13.974L8.55625 13.974L8.99878 14.4727ZM8.74292 14.666L8.93359 15.3048L8.93382 15.3048L8.74292 14.666ZM8.59058 14.666L8.39951 15.3047L8.39979 15.3048L8.59058 14.666ZM8.33569 14.4727L7.89325 14.9713L7.89325 14.9713L8.33569 14.4727ZM6.0144 13.5518L6.01446 12.8851H6.0144V13.5518ZM1.73315 13.5518V14.2184V13.5518ZM1.03101 13.4785L0.728347 14.0725L0.728446 14.0726L1.03101 13.4785ZM0.739014 13.1875L0.144891 13.4899L0.14501 13.4902L0.739014 13.1875ZM0.666748 3.06641H8.13603e-05H0.666748ZM0.739014 2.36426L0.145009 2.0616L0.144765 2.06208L0.739014 2.36426ZM1.03101 2.07227L0.728899 1.47798L0.728346 1.47826L1.03101 2.07227ZM1.73315 2V1.33333V2ZM6.0144 2L6.01435 2.66667C6.71914 2.66673 7.35192 2.94121 7.8923 3.42059L8.33472 2.92188L8.77713 2.42316C8.03138 1.76159 7.09339 1.33343 6.01446 1.33333L6.0144 2ZM8.33472 2.92188L7.89227 3.42056C7.95246 3.47396 8.0201 3.53428 8.08054 3.58153C8.13514 3.62421 8.247 3.70839 8.39979 3.75402L8.59058 3.11523L8.78136 2.47645C8.83419 2.49223 8.87066 2.51218 8.88743 2.5222C8.89618 2.52743 8.90175 2.53128 8.90363 2.5326C8.90553 2.53395 8.90508 2.53371 8.90175 2.53111C8.89432 2.5253 8.88135 2.51463 8.859 2.49529C8.83685 2.47611 8.81096 2.45317 8.77716 2.42319L8.33472 2.92188ZM8.59058 3.11523L8.39997 3.75407C8.46911 3.7747 8.55952 3.79463 8.66688 3.79461C8.7742 3.79459 8.8645 3.77465 8.93334 3.75413L8.74292 3.11523L8.5525 2.47634C8.56454 2.47275 8.60709 2.46129 8.66665 2.46128C8.72626 2.46127 8.7689 2.47273 8.78118 2.4764L8.59058 3.11523ZM8.74292 3.11523L8.93382 3.75398C9.08644 3.70837 9.1982 3.62434 9.2529 3.58158C9.3134 3.53429 9.38104 3.47398 9.44131 3.42048L8.99878 2.92188L8.55625 2.42327C8.52249 2.45323 8.49661 2.47616 8.47449 2.49531C8.45217 2.51463 8.43921 2.52528 8.4318 2.53107C8.42848 2.53367 8.42803 2.5339 8.42994 2.53256C8.43183 2.53123 8.4374 2.52738 8.44614 2.52216C8.4629 2.51214 8.4993 2.49224 8.55202 2.47648L8.74292 3.11523ZM8.99878 2.92188L9.44131 3.42048C9.98139 2.94114 10.615 2.66667 11.3201 2.66667V2V1.33333C10.2413 1.33333 9.30229 1.76112 8.55625 2.42327L8.99878 2.92188ZM11.3201 2V2.66667H15.6003V2V1.33333H11.3201V2ZM15.6003 2V2.66667C15.7984 2.66667 15.9067 2.66708 15.9848 2.67339C16.0552 2.67908 16.0397 2.68609 16.0008 2.66627L16.3035 2.07227L16.6061 1.47826C16.4246 1.38578 16.2442 1.35666 16.0921 1.34438C15.9476 1.33272 15.7757 1.33333 15.6003 1.33333V2ZM16.3035 2.07227L16.0006 2.66618L16.0005 2.66692L16.5945 2.36426L17.1885 2.0616C17.0617 1.81272 16.8589 1.60715 16.6063 1.47835L16.3035 2.07227ZM16.5945 2.36426L16.0003 2.66651C15.9807 2.62799 15.9876 2.61269 15.9933 2.68276C15.9996 2.76061 16.0001 2.8687 16.0001 3.06641H16.6667H17.3334C17.3334 2.89112 17.334 2.7194 17.3223 2.57506C17.31 2.42295 17.2808 2.24307 17.1887 2.06201L16.5945 2.36426ZM16.6667 3.06641H16.0001V12.4844H16.6667H17.3334V3.06641H16.6667ZM16.6667 12.4844H16.0001C16.0001 12.6824 15.9997 12.7907 15.9934 12.8688C15.9877 12.9393 15.9807 12.9237 16.0005 12.8848L16.5945 13.1875L17.1885 13.4902C17.281 13.3087 17.3101 13.1282 17.3224 12.9761C17.334 12.8317 17.3334 12.6597 17.3334 12.4844H16.6667ZM16.5945 13.1875L16.0005 12.8848L16.0004 12.8847L16.3035 13.4785L16.6065 14.0723C16.8567 13.9447 17.0606 13.7411 17.1885 13.4902L16.5945 13.1875ZM16.3035 13.4785L16.0008 12.8845C16.0387 12.8652 16.0533 12.8722 15.9833 12.878C15.9058 12.8844 15.7975 12.8851 15.6003 12.8851V13.5518V14.2184C15.7766 14.2184 15.9485 14.2188 16.0935 14.2068C16.2462 14.1941 16.4257 14.1645 16.6061 14.0725L16.3035 13.4785ZM15.6003 13.5518V12.8851H11.3201V13.5518V14.2184H15.6003V13.5518ZM11.3201 13.5518V12.8851C10.2419 12.8851 9.30263 13.3117 8.5563 13.974L8.99878 14.4727L9.44126 14.9713C9.98094 14.4924 10.6147 14.2184 11.3201 14.2184V13.5518ZM8.99878 14.4727L8.55625 13.974C8.52248 14.004 8.4966 14.0269 8.47448 14.0461C8.45216 14.0654 8.43921 14.0761 8.4318 14.0819C8.42848 14.0845 8.42803 14.0847 8.42994 14.0833C8.43183 14.082 8.4374 14.0782 8.44614 14.0729C8.46291 14.0629 8.49931 14.043 8.55202 14.0273L8.74292 14.666L8.93382 15.3048C9.08644 15.2592 9.19819 15.1751 9.2529 15.1324C9.3134 15.0851 9.38104 15.0248 9.44131 14.9713L8.99878 14.4727ZM8.74292 14.666L8.55225 14.0272C8.56384 14.0237 8.60663 14.0121 8.66669 14.0121C8.72677 14.0121 8.76961 14.0237 8.78136 14.0272L8.59058 14.666L8.39979 15.3048C8.46853 15.3253 8.55907 15.3455 8.66684 15.3454C8.77458 15.3454 8.86505 15.3253 8.93359 15.3048L8.74292 14.666ZM8.59058 14.666L8.78164 14.0273C8.83505 14.0433 8.87197 14.0636 8.88908 14.0739C8.89797 14.0792 8.90364 14.0832 8.90557 14.0845C8.90752 14.0859 8.90709 14.0857 8.90374 14.083C8.89623 14.0771 8.88322 14.0664 8.86065 14.0468C8.83821 14.0273 8.81231 14.0043 8.77813 13.974L8.33569 14.4727L7.89325 14.9713C7.95247 15.0239 8.01997 15.0843 8.07949 15.1311C8.13338 15.1735 8.24559 15.2587 8.39951 15.3047L8.59058 14.666ZM8.33569 14.4727L8.77814 13.974C8.03174 13.3118 7.09278 12.8852 6.01446 12.8851L6.0144 13.5518L6.01435 14.2184C6.71992 14.2185 7.35345 14.4924 7.89325 14.9713L8.33569 14.4727ZM6.0144 13.5518V12.8851H1.73315V13.5518V14.2184H6.0144V13.5518ZM1.73315 13.5518V12.8851C1.53618 12.8851 1.42809 12.8844 1.35085 12.878C1.28137 12.8722 1.29595 12.8653 1.33357 12.8845L1.03101 13.4785L0.728446 14.0726C0.908625 14.1643 1.08771 14.194 1.24038 14.2067C1.38529 14.2188 1.557 14.2184 1.73315 14.2184V13.5518ZM1.03101 13.4785L1.33366 12.8845L1.33302 12.8848L0.739014 13.1875L0.14501 13.4902C0.273889 13.7431 0.479535 13.9457 0.728347 14.0725L1.03101 13.4785ZM0.739014 13.1875L1.33314 12.8851C1.35289 12.9239 1.34586 12.9393 1.34016 12.8687C1.33385 12.7906 1.33341 12.6822 1.33341 12.4844H0.666748H8.13603e-05C8.13603e-05 12.6597 -0.000512183 12.8316 0.0111616 12.9761C0.0234491 13.1282 0.0525549 13.3085 0.144891 13.4899L0.739014 13.1875ZM0.666748 12.4844H1.33341V3.06641H0.666748H8.13603e-05V12.4844H0.666748ZM0.666748 3.06641H1.33341C1.33341 2.8688 1.33388 2.76068 1.34019 2.68281C1.34588 2.61266 1.35285 2.62792 1.33326 2.66644L0.739014 2.36426L0.144765 2.06208C0.0527006 2.24313 0.0235421 2.42302 0.0112152 2.57508C-0.000486612 2.71944 8.13603e-05 2.89113 8.13603e-05 3.06641H0.666748ZM0.739014 2.36426L1.33302 2.66692L1.33367 2.66627L1.03101 2.07227L0.728346 1.47826C0.477463 1.60609 0.27284 1.81071 0.145009 2.0616L0.739014 2.36426ZM1.03101 2.07227L1.33311 2.66655C1.29463 2.68611 1.27942 2.67914 1.34958 2.67345C1.42745 2.66713 1.53558 2.66667 1.73315 2.66667V2V1.33333C1.55786 1.33333 1.38618 1.33277 1.24182 1.34448C1.08976 1.35681 0.909909 1.38596 0.7289 1.47798L1.03101 2.07227ZM1.73315 2V2.66667H6.0144V2V1.33333H1.73315V2Z" fill="black"/>
</mask>
<g mask="url(#mask0_321_1622)">
<path d="M6.0144 2C6.90627 2.00008 7.69165 2.3514 8.33472 2.92188C8.46725 3.03946 8.53404 3.09835 8.59058 3.11523C8.64743 3.1322 8.68611 3.13217 8.74292 3.11523C8.79945 3.09834 8.86625 3.0395 8.99878 2.92188C9.64184 2.35113 10.4282 2 11.3201 2H15.6003C15.9737 2 16.1609 1.9996 16.3035 2.07227C16.4288 2.13619 16.5306 2.23888 16.5945 2.36426C16.667 2.50681 16.6667 2.69341 16.6667 3.06641V12.4844C16.6667 12.8577 16.6671 13.0449 16.5945 13.1875C16.5306 13.3128 16.4287 13.4146 16.3035 13.4785C16.1609 13.5512 15.9737 13.5518 15.6003 13.5518H11.3201C10.4283 13.5518 9.64178 13.9021 8.99878 14.4727C8.86624 14.5903 8.79945 14.6491 8.74292 14.666C8.68597 14.683 8.64756 14.683 8.59058 14.666C8.53406 14.6491 8.46815 14.5902 8.33569 14.4727C7.69259 13.9021 6.90635 13.5518 6.0144 13.5518H1.73315C1.36002 13.5518 1.17357 13.5511 1.03101 13.4785C0.905564 13.4146 0.802929 13.3129 0.739014 13.1875C0.666431 13.0449 0.666748 12.8576 0.666748 12.4844V3.06641C0.666748 2.69352 0.666537 2.50679 0.739014 2.36426C0.802929 2.23882 0.905564 2.13618 1.03101 2.07227C1.17353 1.99981 1.36029 2 1.73315 2H6.0144Z" fill="url(#paint0_linear_321_1622)"/>
<path d="M6.0144 2L6.01446 1.33333H6.0144V2ZM8.33472 2.92188L8.77716 2.42319L8.77713 2.42316L8.33472 2.92188ZM8.59058 3.11523L8.39979 3.75402L8.39997 3.75407L8.59058 3.11523ZM8.74292 3.11523L8.93334 3.75413L8.93382 3.75398L8.74292 3.11523ZM8.99878 2.92188L9.44131 3.42048L9.44131 3.42048L8.99878 2.92188ZM16.3035 2.07227L16.6063 1.47835L16.6061 1.47826L16.3035 2.07227ZM16.5945 2.36426L17.1887 2.06201L17.1885 2.0616L16.5945 2.36426ZM16.6667 3.06641H17.3334H16.6667ZM16.5945 13.1875L17.1885 13.4902L17.1885 13.4902L16.5945 13.1875ZM16.3035 13.4785L16.6061 14.0725L16.6065 14.0723L16.3035 13.4785ZM8.99878 14.4727L8.5563 13.974L8.55625 13.974L8.99878 14.4727ZM8.74292 14.666L8.93359 15.3048L8.93382 15.3048L8.74292 14.666ZM8.59058 14.666L8.39951 15.3047L8.39979 15.3048L8.59058 14.666ZM8.33569 14.4727L7.89325 14.9713L7.89325 14.9713L8.33569 14.4727ZM6.0144 13.5518L6.01446 12.8851H6.0144V13.5518ZM1.73315 13.5518V14.2184V13.5518ZM1.03101 13.4785L0.728347 14.0725L0.728446 14.0726L1.03101 13.4785ZM0.739014 13.1875L0.144891 13.4899L0.14501 13.4902L0.739014 13.1875ZM0.666748 3.06641H8.13603e-05H0.666748ZM0.739014 2.36426L0.145009 2.0616L0.144765 2.06208L0.739014 2.36426ZM1.03101 2.07227L0.728899 1.47798L0.728346 1.47826L1.03101 2.07227ZM1.73315 2V1.33333V2ZM6.0144 2L6.01435 2.66667C6.71914 2.66673 7.35192 2.94121 7.8923 3.42059L8.33472 2.92188L8.77713 2.42316C8.03138 1.76159 7.09339 1.33343 6.01446 1.33333L6.0144 2ZM8.33472 2.92188L7.89227 3.42056C7.95246 3.47396 8.0201 3.53428 8.08054 3.58153C8.13514 3.62421 8.247 3.70839 8.39979 3.75402L8.59058 3.11523L8.78136 2.47645C8.83419 2.49223 8.87066 2.51218 8.88743 2.5222C8.89618 2.52743 8.90175 2.53128 8.90363 2.5326C8.90553 2.53395 8.90508 2.53371 8.90175 2.53111C8.89432 2.5253 8.88135 2.51463 8.859 2.49529C8.83685 2.47611 8.81096 2.45317 8.77716 2.42319L8.33472 2.92188ZM8.59058 3.11523L8.39997 3.75407C8.46911 3.7747 8.55952 3.79463 8.66688 3.79461C8.7742 3.79459 8.8645 3.77465 8.93334 3.75413L8.74292 3.11523L8.5525 2.47634C8.56454 2.47275 8.60709 2.46129 8.66665 2.46128C8.72626 2.46127 8.7689 2.47273 8.78118 2.4764L8.59058 3.11523ZM8.74292 3.11523L8.93382 3.75398C9.08644 3.70837 9.1982 3.62434 9.2529 3.58158C9.3134 3.53429 9.38104 3.47398 9.44131 3.42048L8.99878 2.92188L8.55625 2.42327C8.52249 2.45323 8.49661 2.47616 8.47449 2.49531C8.45217 2.51463 8.43921 2.52528 8.4318 2.53107C8.42848 2.53367 8.42803 2.5339 8.42994 2.53256C8.43183 2.53123 8.4374 2.52738 8.44614 2.52216C8.4629 2.51214 8.4993 2.49224 8.55202 2.47648L8.74292 3.11523ZM8.99878 2.92188L9.44131 3.42048C9.98139 2.94114 10.615 2.66667 11.3201 2.66667V2V1.33333C10.2413 1.33333 9.30229 1.76112 8.55625 2.42327L8.99878 2.92188ZM11.3201 2V2.66667H15.6003V2V1.33333H11.3201V2ZM15.6003 2V2.66667C15.7984 2.66667 15.9067 2.66708 15.9848 2.67339C16.0552 2.67908 16.0397 2.68609 16.0008 2.66627L16.3035 2.07227L16.6061 1.47826C16.4246 1.38578 16.2442 1.35666 16.0921 1.34438C15.9476 1.33272 15.7757 1.33333 15.6003 1.33333V2ZM16.3035 2.07227L16.0006 2.66618L16.0005 2.66692L16.5945 2.36426L17.1885 2.0616C17.0617 1.81272 16.8589 1.60715 16.6063 1.47835L16.3035 2.07227ZM16.5945 2.36426L16.0003 2.66651C15.9807 2.62799 15.9876 2.61269 15.9933 2.68276C15.9996 2.76061 16.0001 2.8687 16.0001 3.06641H16.6667H17.3334C17.3334 2.89112 17.334 2.7194 17.3223 2.57506C17.31 2.42295 17.2808 2.24307 17.1887 2.06201L16.5945 2.36426ZM16.6667 3.06641H16.0001V12.4844H16.6667H17.3334V3.06641H16.6667ZM16.6667 12.4844H16.0001C16.0001 12.6824 15.9997 12.7907 15.9934 12.8688C15.9877 12.9393 15.9807 12.9237 16.0005 12.8848L16.5945 13.1875L17.1885 13.4902C17.281 13.3087 17.3101 13.1282 17.3224 12.9761C17.334 12.8317 17.3334 12.6597 17.3334 12.4844H16.6667ZM16.5945 13.1875L16.0005 12.8848L16.0004 12.8847L16.3035 13.4785L16.6065 14.0723C16.8567 13.9447 17.0606 13.7411 17.1885 13.4902L16.5945 13.1875ZM16.3035 13.4785L16.0008 12.8845C16.0387 12.8652 16.0533 12.8722 15.9833 12.878C15.9058 12.8844 15.7975 12.8851 15.6003 12.8851V13.5518V14.2184C15.7766 14.2184 15.9485 14.2188 16.0935 14.2068C16.2462 14.1941 16.4257 14.1645 16.6061 14.0725L16.3035 13.4785ZM15.6003 13.5518V12.8851H11.3201V13.5518V14.2184H15.6003V13.5518ZM11.3201 13.5518V12.8851C10.2419 12.8851 9.30263 13.3117 8.5563 13.974L8.99878 14.4727L9.44126 14.9713C9.98094 14.4924 10.6147 14.2184 11.3201 14.2184V13.5518ZM8.99878 14.4727L8.55625 13.974C8.52248 14.004 8.4966 14.0269 8.47448 14.0461C8.45216 14.0654 8.43921 14.0761 8.4318 14.0819C8.42848 14.0845 8.42803 14.0847 8.42994 14.0833C8.43183 14.082 8.4374 14.0782 8.44614 14.0729C8.46291 14.0629 8.49931 14.043 8.55202 14.0273L8.74292 14.666L8.93382 15.3048C9.08644 15.2592 9.19819 15.1751 9.2529 15.1324C9.3134 15.0851 9.38104 15.0248 9.44131 14.9713L8.99878 14.4727ZM8.74292 14.666L8.55225 14.0272C8.56384 14.0237 8.60663 14.0121 8.66669 14.0121C8.72677 14.0121 8.76961 14.0237 8.78136 14.0272L8.59058 14.666L8.39979 15.3048C8.46853 15.3253 8.55907 15.3455 8.66684 15.3454C8.77458 15.3454 8.86505 15.3253 8.93359 15.3048L8.74292 14.666ZM8.59058 14.666L8.78164 14.0273C8.83505 14.0433 8.87197 14.0636 8.88908 14.0739C8.89797 14.0792 8.90364 14.0832 8.90557 14.0845C8.90752 14.0859 8.90709 14.0857 8.90374 14.083C8.89623 14.0771 8.88322 14.0664 8.86065 14.0468C8.83821 14.0273 8.81231 14.0043 8.77813 13.974L8.33569 14.4727L7.89325 14.9713C7.95247 15.0239 8.01997 15.0843 8.07949 15.1311C8.13338 15.1735 8.24559 15.2587 8.39951 15.3047L8.59058 14.666ZM8.33569 14.4727L8.77814 13.974C8.03174 13.3118 7.09278 12.8852 6.01446 12.8851L6.0144 13.5518L6.01435 14.2184C6.71992 14.2185 7.35345 14.4924 7.89325 14.9713L8.33569 14.4727ZM6.0144 13.5518V12.8851H1.73315V13.5518V14.2184H6.0144V13.5518ZM1.73315 13.5518V12.8851C1.53618 12.8851 1.42809 12.8844 1.35085 12.878C1.28137 12.8722 1.29595 12.8653 1.33357 12.8845L1.03101 13.4785L0.728446 14.0726C0.908625 14.1643 1.08771 14.194 1.24038 14.2067C1.38529 14.2188 1.557 14.2184 1.73315 14.2184V13.5518ZM1.03101 13.4785L1.33366 12.8845L1.33302 12.8848L0.739014 13.1875L0.14501 13.4902C0.273889 13.7431 0.479535 13.9457 0.728347 14.0725L1.03101 13.4785ZM0.739014 13.1875L1.33314 12.8851C1.35289 12.9239 1.34586 12.9393 1.34016 12.8687C1.33385 12.7906 1.33341 12.6822 1.33341 12.4844H0.666748H8.13603e-05C8.13603e-05 12.6597 -0.000512183 12.8316 0.0111616 12.9761C0.0234491 13.1282 0.0525549 13.3085 0.144891 13.4899L0.739014 13.1875ZM0.666748 12.4844H1.33341V3.06641H0.666748H8.13603e-05V12.4844H0.666748ZM0.666748 3.06641H1.33341C1.33341 2.8688 1.33388 2.76068 1.34019 2.68281C1.34588 2.61266 1.35285 2.62792 1.33326 2.66644L0.739014 2.36426L0.144765 2.06208C0.0527006 2.24313 0.0235421 2.42302 0.0112152 2.57508C-0.000486612 2.71944 8.13603e-05 2.89113 8.13603e-05 3.06641H0.666748ZM0.739014 2.36426L1.33302 2.66692L1.33367 2.66627L1.03101 2.07227L0.728346 1.47826C0.477463 1.60609 0.27284 1.81071 0.145009 2.0616L0.739014 2.36426ZM1.03101 2.07227L1.33311 2.66655C1.29463 2.68611 1.27942 2.67914 1.34958 2.67345C1.42745 2.66713 1.53558 2.66667 1.73315 2.66667V2V1.33333C1.55786 1.33333 1.38618 1.33277 1.24182 1.34448C1.08976 1.35681 0.909909 1.38596 0.7289 1.47798L1.03101 2.07227ZM1.73315 2V2.66667H6.0144V2V1.33333H1.73315V2Z" fill="black"/>
<g style="mix-blend-mode:overlay">
<rect x="8.66699" y="0.399658" width="9.6002" height="16.0003" fill="#D9D9D9"/>
</g>
</g>
</g>
<defs>
<linearGradient id="paint0_linear_321_1622" x1="0.666748" y1="8.33939" x2="16.6667" y2="8.33939" gradientUnits="userSpaceOnUse">
<stop stop-color="#D9D9D9"/>
<stop offset="1" stop-color="#C2C2C2"/>
</linearGradient>
</defs>
</svg>
