<svg width="36" height="36" viewBox="0 0 36 36" fill="none" xmlns="http://www.w3.org/2000/svg">
<path d="M10.0002 15.6738C10.0084 15.4169 10.1052 15.1617 10.2942 14.959L14.4768 10.4756C14.8913 10.0317 15.5874 10.0075 16.0315 10.4219C16.4755 10.8363 16.4995 11.5324 16.0852 11.9766L13.6223 14.6152L19.3899 14.6152C22.5339 14.6152 25.0833 17.1636 25.0833 20.3076C25.0831 23.4515 22.5338 26 19.3899 26H16.428C15.8208 25.9997 15.3285 25.5076 15.3284 24.9004C15.3284 24.2931 15.8207 23.8011 16.428 23.8008H19.3899C21.3188 23.8008 22.8829 22.2365 22.8831 20.3076C22.8831 18.3786 21.3189 16.8145 19.3899 16.8145H13.6223L16.0852 19.4531C16.4993 19.8973 16.4756 20.5935 16.0315 21.0078C15.5875 21.4221 14.8913 21.3978 14.4768 20.9541L10.2942 16.4707C10.1051 16.268 10.0085 16.0128 10.0002 15.7559C9.99966 15.7422 10.0003 15.7285 10.0002 15.7148C10.0003 15.7012 9.99967 15.6875 10.0002 15.6738Z" fill="#171717"/>
</svg>
