<svg width="18" height="16" viewBox="0 0 18 16" fill="none" xmlns="http://www.w3.org/2000/svg">
<g style="mix-blend-mode:overlay">
<path d="M15.6001 2.00005L1.73369 2L1.73367 2C1.36032 2 1.17365 2 1.03104 2.07266C0.905605 2.13657 0.803618 2.23856 0.739701 2.364C0.667037 2.5066 0.667032 2.69328 0.667023 3.06664L0.666775 12.9333C0.666765 13.3067 0.666761 13.4934 0.739422 13.636C0.803336 13.7614 0.905324 13.8634 1.03077 13.9273C1.17338 14 1.36006 14 1.73344 14H15.6001C15.9734 14 16.1601 14 16.3027 13.9273C16.4282 13.8634 16.5302 13.7614 16.5941 13.636C16.6667 13.4934 16.6667 13.3067 16.6667 12.9333V3.06671C16.6667 2.69335 16.6667 2.50666 16.5941 2.36406C16.5302 2.23861 16.4282 2.13663 16.3027 2.07271C16.1601 2.00005 15.9735 2.00005 15.6001 2.00005Z" fill="#D9D9D9" stroke="black" stroke-width="1.33333" stroke-linejoin="round"/>
<path d="M6.66675 5.8831C6.66675 5.49445 7.09073 5.25439 7.424 5.45435L10.9522 7.57125C11.2758 7.76545 11.2758 8.23454 10.9522 8.42875L7.424 10.5457C7.09073 10.7456 6.66675 10.5056 6.66675 10.1169V5.8831Z" fill="black"/>
</g>
</svg>
