<svg width="16" height="18" viewBox="0 0 16 18" fill="none" xmlns="http://www.w3.org/2000/svg">
<g style="mix-blend-mode:overlay">
<path d="M15.3335 3.33341C15.3335 4.80617 12.1995 6.00008 8.3335 6.00008C4.4675 6.00008 1.3335 4.80617 1.3335 3.33341C1.3335 1.86066 4.4675 0.666748 8.3335 0.666748C12.1995 0.666748 15.3335 1.86066 15.3335 3.33341Z" fill="#D9D9D9"/>
<path d="M8.3335 9.55564C12.1995 9.55564 15.3335 8.36173 15.3335 6.88897V3.33341C15.3335 4.80617 12.1995 6.00008 8.3335 6.00008C4.4675 6.00008 1.3335 4.80617 1.3335 3.33341V6.88897C1.3335 8.36173 4.4675 9.55564 8.3335 9.55564Z" fill="#D9D9D9"/>
<path d="M8.3335 13.1112C12.1995 13.1112 15.3335 11.9173 15.3335 10.4445V6.88897C15.3335 8.36173 12.1995 9.55564 8.3335 9.55564C4.4675 9.55564 1.3335 8.36173 1.3335 6.88897V10.4445C1.3335 11.9173 4.4675 13.1112 8.3335 13.1112Z" fill="#D9D9D9"/>
<path d="M8.3335 16.6667C12.1995 16.6667 15.3335 15.4728 15.3335 14.0001V10.4445C15.3335 11.9173 12.1995 13.1112 8.3335 13.1112C4.4675 13.1112 1.3335 11.9173 1.3335 10.4445V14.0001C1.3335 15.4728 4.4675 16.6667 8.3335 16.6667Z" fill="#D9D9D9"/>
<path d="M15.3335 10.4445C15.3335 11.9173 12.1995 13.1112 8.3335 13.1112C4.4675 13.1112 1.3335 11.9173 1.3335 10.4445M15.3335 10.4445V6.88897M15.3335 10.4445V14.0001C15.3335 15.4728 12.1995 16.6667 8.3335 16.6667C4.4675 16.6667 1.3335 15.4728 1.3335 14.0001V10.4445M1.3335 10.4445V6.88897M15.3335 6.88897C15.3335 8.36173 12.1995 9.55564 8.3335 9.55564C4.4675 9.55564 1.3335 8.36173 1.3335 6.88897M15.3335 6.88897V3.33341M1.3335 6.88897V3.33341M15.3335 3.33341C15.3335 4.80617 12.1995 6.00008 8.3335 6.00008C4.4675 6.00008 1.3335 4.80617 1.3335 3.33341M15.3335 3.33341C15.3335 1.86066 12.1995 0.666748 8.3335 0.666748C4.4675 0.666748 1.3335 1.86066 1.3335 3.33341" stroke="black" stroke-width="1.33333"/>
</g>
</svg>
