<svg width="17" height="17" viewBox="0 0 17 17" fill="none" xmlns="http://www.w3.org/2000/svg">
<g style="mix-blend-mode:overlay">
<path d="M16.3335 8.50012C16.3335 12.8264 12.8264 16.3335 8.50012 16.3335C4.17387 16.3335 0.666748 12.8264 0.666748 8.50012C0.666748 4.17387 4.17387 0.666748 8.50012 0.666748C12.8264 0.666748 16.3335 4.17387 16.3335 8.50012Z" fill="white" fill-opacity="0.5"/>
<path d="M16.3335 8.50012C16.3335 12.8264 12.8264 16.3335 8.50012 16.3335C4.17387 16.3335 0.666748 12.8264 0.666748 8.50012C0.666748 4.17387 4.17387 0.666748 8.50012 0.666748C12.8264 0.666748 16.3335 4.17387 16.3335 8.50012Z" stroke="black" stroke-width="1.33333"/>
<path d="M16.3335 8.50012C16.3335 12.8264 12.8264 16.3335 8.50012 16.3335C4.17387 16.3335 0.666748 12.8264 0.666748 8.50012C0.666748 4.17387 4.17387 0.666748 8.50012 0.666748C12.8264 0.666748 16.3335 4.17387 16.3335 8.50012Z" stroke="black" stroke-width="1.33333"/>
<path d="M16.3335 8.50012H0.666748M8.50012 16.3335V0.666748" stroke="black"/>
<path d="M16.3335 8.50012H0.666748M8.50012 16.3335V0.666748" stroke="black"/>
<mask id="mask0_321_3513" style="mask-type:alpha" maskUnits="userSpaceOnUse" x="0" y="0" width="17" height="17">
<path d="M16.3335 8.50012C16.3335 12.8264 12.8264 16.3335 8.50012 16.3335C4.17387 16.3335 0.666748 12.8264 0.666748 8.50012C0.666748 4.17387 4.17387 0.666748 8.50012 0.666748C12.8264 0.666748 16.3335 4.17387 16.3335 8.50012Z" fill="white"/>
</mask>
<g mask="url(#mask0_321_3513)">
<path d="M8.49976 12.1335C10.5729 12.1335 12.4289 12.7225 13.7527 13.6492C15.0779 14.5769 15.8337 15.8107 15.8337 17.1169C15.8337 18.4231 15.0779 19.657 13.7527 20.5847C12.4289 21.5114 10.5729 22.1003 8.49976 22.1003C6.4268 22.1003 4.57149 21.5113 3.2478 20.5847C1.92246 19.657 1.16676 18.4232 1.16675 17.1169C1.16675 15.8107 1.92245 14.5769 3.2478 13.6492C4.5715 12.7226 6.42678 12.1336 8.49976 12.1335Z" stroke="black"/>
<path d="M8.49976 -5.09985C10.5729 -5.09985 12.4289 -4.51087 13.7527 -3.58423C15.0779 -2.6565 15.8337 -1.42265 15.8337 -0.116455C15.8337 1.18974 15.0779 2.42359 13.7527 3.35132C12.4289 4.27796 10.5729 4.86694 8.49976 4.86694C6.4268 4.86687 4.57149 4.27789 3.2478 3.35132C1.92246 2.42358 1.16676 1.18978 1.16675 -0.116455C1.16675 -1.42271 1.92245 -2.65648 3.2478 -3.58423C4.5715 -4.51081 6.42678 -5.09978 8.49976 -5.09985Z" stroke="black"/>
<path d="M5.36646 -0.399902C9.33508 -0.399902 12.7004 3.4959 12.7004 8.50049C12.7003 13.5049 9.33499 17.3999 5.36646 17.3999C1.39808 17.3997 -1.9664 13.5048 -1.96655 8.50049C-1.96655 3.49605 1.39799 -0.399663 5.36646 -0.399902Z" stroke="black"/>
<path d="M11.6331 -0.399902C15.6017 -0.399902 18.967 3.4959 18.967 8.50049C18.9669 13.5049 15.6016 17.3999 11.6331 17.3999C7.66468 17.3997 4.3002 13.5048 4.30005 8.50049C4.30005 3.49605 7.66459 -0.399663 11.6331 -0.399902Z" stroke="black"/>
</g>
</g>
</svg>
