<svg width="27" height="26" viewBox="0 0 27 26" fill="none" xmlns="http://www.w3.org/2000/svg">
<path d="M24.7002 0.75C24.8278 0.75 24.9689 0.749884 25.0898 0.759766C25.2196 0.770389 25.3907 0.796713 25.5674 0.886719C25.8025 1.00653 25.9934 1.19751 26.1133 1.43262C26.2033 1.60924 26.2296 1.78045 26.2402 1.91016C26.2501 2.03108 26.25 2.17223 26.25 2.2998V14.7002C26.25 14.8278 26.2501 14.9689 26.2402 15.0898C26.2296 15.2196 26.2033 15.3907 26.1133 15.5674C25.9935 15.8025 25.8025 15.9935 25.5674 16.1133C25.3907 16.2033 25.2196 16.2296 25.0898 16.2402C24.9689 16.2501 24.8278 16.25 24.7002 16.25H2.2998C2.17222 16.25 2.03109 16.2501 1.91016 16.2402C1.78045 16.2296 1.60926 16.2033 1.43262 16.1133C1.1975 15.9935 1.00654 15.8025 0.886719 15.5674C0.796725 15.3907 0.770387 15.2196 0.759766 15.0898C0.749889 14.9689 0.749995 14.8278 0.75 14.7002V2.2998C0.750004 2.17221 0.74988 2.03111 0.759766 1.91016C0.770387 1.78046 0.796733 1.60926 0.886719 1.43262C1.00648 1.19758 1.19763 1.00657 1.43262 0.886719L1.56445 0.830078C1.69322 0.784285 1.8139 0.767709 1.91113 0.759766C2.0321 0.749891 2.17319 0.749999 2.30078 0.75H24.7002Z" fill="#F3F3F3" stroke="black" stroke-width="1.5" stroke-linejoin="round"/>
<path d="M6.67773 6.02734C6.76969 5.99056 6.87289 5.99056 6.96484 6.02734L11.2441 7.73926C11.3986 7.80111 11.4076 8.01642 11.2588 8.09082L9.92773 8.75586C9.79706 8.8212 9.71387 8.95546 9.71387 9.10156V10.4053C9.71387 10.4394 9.70755 10.4724 9.69922 10.5039C9.70857 10.5986 9.71484 10.6949 9.71484 10.792C9.71469 11.9648 9.01498 12.9718 8.01172 13.4258C10.0987 14.0315 11.6424 16.1922 11.6426 18.7656C8.58069 20.1653 5.06188 20.1653 2 18.7656C2.00018 16.1926 3.54353 14.032 5.62988 13.4258C4.6273 12.9715 3.92886 11.9643 3.92871 10.792C3.92871 10.6949 3.93304 10.5985 3.94238 10.5039C3.9341 10.4725 3.92871 10.4393 3.92871 10.4053V9.10156C3.92871 8.95555 3.84636 8.82124 3.71582 8.75586L2.38379 8.09082C2.23525 8.01637 2.24432 7.80121 2.39844 7.73926L6.67773 6.02734Z" fill="black"/>
<path d="M21.8213 10C23.4189 10 24.7147 11.2951 24.7148 12.8926C24.7148 14.0651 24.0155 15.0721 23.0127 15.5264C25.0993 16.1324 26.6425 18.2939 26.6426 20.8672C23.5807 22.2668 20.0618 22.2669 17 20.8672C17.0001 18.2944 18.5428 16.1329 20.6289 15.5264C19.6268 15.0718 18.9287 14.0646 18.9287 12.8926C18.9289 11.2952 20.2239 10.0001 21.8213 10Z" fill="#5B5B5B"/>
<path d="M14.8213 13C16.4189 13 17.7147 14.2951 17.7148 15.8926C17.7148 17.0651 17.0155 18.0721 16.0127 18.5264C18.0993 19.1324 19.6425 21.2939 19.6426 23.8672C16.5807 25.2668 13.0618 25.2669 10 23.8672C10.0001 21.2944 11.5428 19.1329 13.6289 18.5264C12.6268 18.0718 11.9287 17.0646 11.9287 15.8926C11.9289 14.2952 13.2239 13.0001 14.8213 13Z" fill="black"/>
</svg>
